<svg width="15" height="11" viewBox="0 0 15 11" fill="none" xmlns="http://www.w3.org/2000/svg">
<path d="M1.36816 4.66162C1.49512 4.79492 1.69824 4.78857 1.8252 4.64893C3.32959 3.06201 5.29102 2.23047 7.49365 2.23047C9.71533 2.23047 11.6895 3.06836 13.1812 4.65527C13.3018 4.78223 13.4985 4.78223 13.6255 4.64893L14.4697 3.79199C14.5903 3.67139 14.5967 3.5127 14.4951 3.39844C13.0352 1.60205 10.3184 0.307129 7.49365 0.307129C4.67529 0.307129 1.95215 1.60205 0.498535 3.39844C0.396973 3.5127 0.40332 3.67139 0.523926 3.79199L1.36816 4.66162ZM3.90723 7.20068C4.04688 7.34668 4.2373 7.33398 4.37695 7.17529C5.11963 6.35645 6.30029 5.78516 7.5 5.7915C8.7124 5.78516 9.89307 6.37549 10.6421 7.20068C10.7754 7.34033 10.9595 7.34033 11.0928 7.20068L12.0449 6.25488C12.1655 6.14062 12.1719 5.98828 12.0703 5.86133C11.1245 4.70605 9.3916 3.87451 7.5 3.87451C5.60205 3.87451 3.87549 4.70605 2.92969 5.86133C2.82812 5.98828 2.83447 6.14062 2.95508 6.25488L3.90723 7.20068ZM7.5 10.5396C7.646 10.5396 7.77295 10.4634 8.01416 10.2349L9.49951 8.80029C9.61377 8.69873 9.63281 8.53369 9.5376 8.41309C9.1123 7.87354 8.35059 7.43555 7.5 7.43555C6.63037 7.43555 5.84961 7.89258 5.43066 8.45752C5.36084 8.56543 5.38623 8.70508 5.50049 8.80029L6.98584 10.2349C7.2207 10.4697 7.354 10.5396 7.5 10.5396Z" fill="white"/>
</svg>
