<svg width="12" height="13" viewBox="0 0 12 13" fill="none" xmlns="http://www.w3.org/2000/svg">
<path d="M2.15332 12.3584H9.84033C11.2178 12.3584 11.9287 11.6475 11.9287 10.2891V2.56396C11.9287 1.20557 11.2178 0.494629 9.84033 0.494629H2.15332C0.782227 0.494629 0.0649414 1.19922 0.0649414 2.56396V10.2891C0.0649414 11.6475 0.782227 12.3584 2.15332 12.3584ZM3.92432 9.49561C3.5498 9.49561 3.32129 9.27344 3.32129 8.93066C3.32129 8.81641 3.34668 8.6958 3.40381 8.51807L5.07324 3.94775C5.23828 3.47803 5.54297 3.24951 6.00635 3.24951C6.47607 3.24951 6.78711 3.47803 6.95215 3.94775L8.62158 8.51807C8.67871 8.6958 8.7041 8.81641 8.7041 8.93066C8.7041 9.27344 8.47559 9.49561 8.10742 9.49561C7.80908 9.49561 7.59961 9.34326 7.4917 8.9624L7.10449 7.83252H4.92725L4.53369 8.9624C4.42578 9.34326 4.22266 9.49561 3.92432 9.49561ZM5.2002 6.89941H6.83154L6.05078 4.5H5.98096L5.2002 6.89941Z" fill="white"/>
</svg>
